# Hierarchical Translation and Rotation (.htr) file
# Generated by EVaRT
[Header]
FileType htr
DataType HTRS
FileVersion 1
NumSegments 23
NumFrames 4
DataFrameRate 120
EulerRotationOrder ZYX
CalibrationUnits mm
RotationUnits Degrees
GlobalAxisofGravity Y
BoneLengthAxis Y
ScaleFactor 1
[SegmentNames&Hierarchy]
#CHILD            PARENT
DaveRoot          GLOBAL
Spine1            DaveRoot
Spine2            Spine1
Spine3            Spine2
Spine4            Spine3
Neck              Spine4
Head              Neck
LClavicle         Spine4
LUpperArm         LClavicle
LLowerArm         LUpperArm
LHand             LLowerArm
RClavicle         Spine4
RUpperArm         RClavicle
RLowerArm         RUpperArm
RHand             RLowerArm
RUpperLeg         DaveRoot
RLowerLeg         RUpperLeg
RFoot             RLowerLeg
RToes             RFoot
LUpperLeg         DaveRoot
LLowerLeg         LUpperLeg
LFoot             LLowerLeg
LToes             LFoot
[BasePosition]
#SegmentName      Tx   Ty   Tz   Rx   Ry   Rz   BoneLength
DaveRoot          -2055.569378	951.555595	-349.488296	-55.286396	87.050266	-65.121985	100.000000
Spine1            0.000000	100.000000	0.000000	-15.583766	0.109194	-2.004305	100.000000
Spine2            0.000000	100.000000	0.000000	5.873579	0.737526	-1.849210	100.000000
Spine3            0.000000	100.000000	0.000000	12.197367	0.936767	-1.756723	100.000000
Spine4            0.000000	100.000000	0.000000	13.310112	2.040835	-0.212222	100.000000
Neck              0.000000	100.000000	0.000000	12.619245	0.173111	5.676401	80.000000
Head              0.000000	80.000000	0.000000	-46.107413	-7.464542	12.340102	200.000000
LClavicle         0.000000	100.000000	0.000000	1.044460	-1.911847	-125.483710	200.000000
LUpperArm         0.000000	200.000000	0.000000	43.357802	45.679579	2.001361	300.000000
LLowerArm         0.000000	300.000000	0.000000	0.730208	2.175812	1.895763	200.000000
LHand             0.000000	200.000000	0.000000	7.864047	-1.768569	8.793625	120.000000
RClavicle         0.000000	100.000000	0.000000	-0.545713	-3.840301	119.120382	200.000000
RUpperArm         0.000000	200.000000	0.000000	38.253382	-38.646808	20.273438	300.000000
RLowerArm         0.000000	300.000000	0.000000	3.077531	-3.682026	-7.348670	200.000000
RHand             0.000000	200.000000	0.000000	24.943087	4.220171	-5.193807	120.000000
RUpperLeg         -115.911102	-10.000000	31.058285	22.464267	14.037388	-176.329742	530.000000
RLowerLeg         0.000000	530.000000	0.000000	-23.704548	0.479387	-2.520024	460.000000
RFoot             0.000000	460.000000	0.000000	90.327319	5.730808	-0.531790	130.000000
RToes             0.000000	130.000000	0.000000	18.726053	0.005479	-0.002881	100.000000
LUpperLeg         115.911102	-10.000000	31.058285	16.272232	9.077962	178.396881	530.000000
LLowerLeg         0.000000	530.000000	0.000000	-9.044305	-3.275937	3.046484	460.000000
LFoot             0.000000	460.000000	0.000000	80.193205	-12.160808	23.252942	130.000000
LToes             0.000000	130.000000	0.000000	33.283153	-0.000000	-0.000086	100.000000
#Beginning of Data.
[DaveRoot]
#Fr	Tx	Ty	Tz	Rx	Ry	Rz	SF
741	2065.534143	-799.625694	-151.832197	134.022192	-9.192785	-123.252439	1.000000	
742	2065.507886	-800.699443	-153.076978	134.478251	-9.261445	-123.801093	1.000000	
743	2065.601647	-801.788943	-154.311380	134.941595	-9.392322	-124.333367	1.000000	
744	2065.825629	-803.054287	-155.372913	135.362229	-9.680474	-124.890906	1.000000	
[Spine1]
#Fr	Tx	Ty	Tz	Rx	Ry	Rz	SF
741	0.000000	0.000000	0.000000	2.071041	3.079974	8.267226	1.000000	
742	0.000000	0.000000	0.000000	2.096022	3.068860	8.233231	1.000000	
743	0.000000	0.000000	0.000000	2.119988	3.054747	8.186238	1.000000	
744	0.000000	0.000000	0.000000	2.173468	3.023069	8.091156	1.000000	
[Spine2]
#Fr	Tx	Ty	Tz	Rx	Ry	Rz	SF
741	0.000000	0.000000	0.000000	2.071041	3.079974	8.267226	1.000000	
742	0.000000	0.000000	0.000000	2.096022	3.068860	8.233231	1.000000	
743	0.000000	0.000000	0.000000	2.119988	3.054747	8.186238	1.000000	
744	0.000000	0.000000	0.000000	2.173468	3.023069	8.091156	1.000000	
[Spine3]
#Fr	Tx	Ty	Tz	Rx	Ry	Rz	SF
741	0.000000	0.000000	0.000000	2.071041	3.079974	8.267226	1.000000	
742	0.000000	0.000000	0.000000	2.096022	3.068860	8.233231	1.000000	
743	0.000000	0.000000	0.000000	2.119988	3.054747	8.186238	1.000000	
744	0.000000	0.000000	0.000000	2.173468	3.023069	8.091156	1.000000	
[Spine4]
#Fr	Tx	Ty	Tz	Rx	Ry	Rz	SF
741	0.000000	0.000000	0.000000	2.071041	3.079974	8.267226	1.000000	
742	0.000000	0.000000	0.000000	2.096022	3.068860	8.233231	1.000000	
743	0.000000	0.000000	0.000000	2.119988	3.054747	8.186238	1.000000	
744	0.000000	0.000000	0.000000	2.173468	3.023069	8.091156	1.000000	
[Neck]
#Fr	Tx	Ty	Tz	Rx	Ry	Rz	SF
741	0.000000	0.000000	0.000000	17.362854	-15.793332	-5.002583	1.000000	
742	0.000000	0.000000	0.000000	17.412280	-15.631896	-5.122725	1.000000	
743	0.000000	0.000000	0.000000	17.446800	-15.482336	-5.219984	1.000000	
744	0.000000	0.000000	0.000000	17.429029	-15.338893	-5.251795	1.000000	
[Head]
#Fr	Tx	Ty	Tz	Rx	Ry	Rz	SF
741	0.000000	0.000000	0.000000	17.362854	-15.793332	-5.002583	1.000000	
742	0.000000	0.000000	0.000000	17.412280	-15.631896	-5.122725	1.000000	
743	0.000000	0.000000	0.000000	17.446800	-15.482336	-5.219984	1.000000	
744	0.000000	0.000000	0.000000	17.429029	-15.338893	-5.251795	1.000000	
[LClavicle]
#Fr	Tx	Ty	Tz	Rx	Ry	Rz	SF
741	0.000000	0.000000	0.000000	6.035476	-0.811893	28.647732	1.000000	
742	0.000000	0.000000	0.000000	5.898511	-0.779052	28.511894	1.000000	
743	0.000000	0.000000	0.000000	5.782587	-0.749599	28.375628	1.000000	
744	0.000000	0.000000	0.000000	5.663514	-0.724432	28.280116	1.000000	
[LUpperArm]
#Fr	Tx	Ty	Tz	Rx	Ry	Rz	SF
741	0.000000	0.000000	0.000000	63.527104	-45.354037	-73.213225	1.000000	
742	0.000000	0.000000	0.000000	63.871376	-45.997319	-73.962531	1.000000	
743	0.000000	0.000000	0.000000	64.211602	-46.667869	-74.648298	1.000000	
744	0.000000	0.000000	0.000000	64.571583	-47.355413	-75.229938	1.000000	
[LLowerArm]
#Fr	Tx	Ty	Tz	Rx	Ry	Rz	SF
741	0.000000	0.000000	0.000000	90.409387	-0.000000	-0.000000	1.000000	
742	0.000000	0.000000	0.000000	90.732617	-0.000000	-0.000000	1.000000	
743	0.000000	0.000000	0.000000	91.013092	-0.000000	-0.000000	1.000000	
744	0.000000	0.000000	0.000000	91.261598	-0.000000	-0.000000	1.000000	
[LHand]
#Fr	Tx	Ty	Tz	Rx	Ry	Rz	SF
741	0.000000	0.000000	0.000000	8.390268	0.000000	0.000000	1.000000	
742	0.000000	0.000000	0.000000	8.518836	0.000000	0.000000	1.000000	
743	0.000000	0.000000	0.000000	8.666280	0.000000	0.000000	1.000000	
744	0.000000	0.000000	0.000000	8.808536	0.000000	0.000000	1.000000	
[RClavicle]
#Fr	Tx	Ty	Tz	Rx	Ry	Rz	SF
741	0.000000	0.000000	0.000000	3.445394	0.479809	-19.214883	1.000000	
742	0.000000	0.000000	0.000000	3.415490	0.472440	-19.162365	1.000000	
743	0.000000	0.000000	0.000000	3.403849	0.467720	-19.111112	1.000000	
744	0.000000	0.000000	0.000000	3.433415	0.466310	-19.021408	1.000000	
[RUpperArm]
#Fr	Tx	Ty	Tz	Rx	Ry	Rz	SF
741	0.000000	0.000000	0.000000	48.028067	13.001975	-27.320187	1.000000	
742	0.000000	0.000000	0.000000	47.136829	13.227539	-27.229583	1.000000	
743	0.000000	0.000000	0.000000	46.202337	13.489686	-27.116484	1.000000	
744	0.000000	0.000000	0.000000	45.236140	13.811589	-27.048128	1.000000	
[RLowerArm]
#Fr	Tx	Ty	Tz	Rx	Ry	Rz	SF
741	0.000000	0.000000	0.000000	83.814447	-0.000000	-0.000000	1.000000	
742	0.000000	0.000000	0.000000	84.785099	-0.000000	-0.000000	1.000000	
743	0.000000	0.000000	0.000000	85.677206	-0.000000	-0.000000	1.000000	
744	0.000000	0.000000	0.000000	86.480671	-0.000000	-0.000000	1.000000	
[RHand]
#Fr	Tx	Ty	Tz	Rx	Ry	Rz	SF
741	0.000000	0.000000	0.000000	-11.156355	-52.122979	-0.723016	1.000000	
742	0.000000	0.000000	0.000000	-10.953415	-52.460508	-0.743150	1.000000	
743	0.000000	0.000000	0.000000	-10.749193	-52.727363	-0.756604	1.000000	
744	0.000000	0.000000	0.000000	-10.493291	-52.916775	-0.837621	1.000000	
[RUpperLeg]
#Fr	Tx	Ty	Tz	Rx	Ry	Rz	SF
741	0.000000	0.000000	0.000000	30.822752	-11.730248	2.597343	1.000000	
742	0.000000	0.000000	0.000000	31.269229	-11.626434	2.510952	1.000000	
743	0.000000	0.000000	0.000000	31.802465	-11.702406	2.314870	1.000000	
744	0.000000	0.000000	0.000000	32.387366	-11.690298	1.949192	1.000000	
[RLowerLeg]
#Fr	Tx	Ty	Tz	Rx	Ry	Rz	SF
741	0.000000	0.000000	0.000000	-13.612858	0.000000	0.000000	1.000000	
742	0.000000	0.000000	0.000000	-13.524907	0.000000	0.000000	1.000000	
743	0.000000	0.000000	0.000000	-13.536200	0.000000	0.000000	1.000000	
744	0.000000	0.000000	0.000000	-13.662604	0.000000	0.000000	1.000000	
[RFoot]
#Fr	Tx	Ty	Tz	Rx	Ry	Rz	SF
741	0.000000	0.000000	0.000000	-25.256933	-5.407517	-0.886989	1.000000	
742	0.000000	0.000000	0.000000	-25.035389	-5.735638	-1.018302	1.000000	
743	0.000000	0.000000	0.000000	-24.800682	-5.867972	-1.384880	1.000000	
744	0.000000	0.000000	0.000000	-24.517143	-5.831346	-1.724520	1.000000	
[RToes]
#Fr	Tx	Ty	Tz	Rx	Ry	Rz	SF
741	0.000000	0.000000	0.000000	3.171406	0.000000	0.000000	1.000000	
742	0.000000	0.000000	0.000000	3.140091	0.000000	0.000000	1.000000	
743	0.000000	0.000000	0.000000	2.997782	0.000000	0.000000	1.000000	
744	0.000000	0.000000	0.000000	2.793886	0.000000	0.000000	1.000000	
[LUpperLeg]
#Fr	Tx	Ty	Tz	Rx	Ry	Rz	SF
741	0.000000	0.000000	0.000000	44.108491	19.322170	39.389398	1.000000	
742	0.000000	0.000000	0.000000	44.777751	19.810932	40.148505	1.000000	
743	0.000000	0.000000	0.000000	45.173511	19.715920	40.270209	1.000000	
744	0.000000	0.000000	0.000000	45.225334	19.127946	39.639497	1.000000	
[LLowerLeg]
#Fr	Tx	Ty	Tz	Rx	Ry	Rz	SF
741	0.000000	0.000000	0.000000	3.307075	0.000000	-0.000000	1.000000	
742	0.000000	0.000000	0.000000	2.736177	0.000000	-0.000000	1.000000	
743	0.000000	0.000000	0.000000	2.501811	0.000000	-0.000000	1.000000	
744	0.000000	0.000000	0.000000	2.718707	0.000000	-0.000000	1.000000	
[LFoot]
#Fr	Tx	Ty	Tz	Rx	Ry	Rz	SF
741	0.000000	0.000000	0.000000	-31.806654	1.635862	2.120763	1.000000	
742	0.000000	0.000000	0.000000	-31.639661	1.241280	2.519034	1.000000	
743	0.000000	0.000000	0.000000	-31.431574	1.150851	2.181136	1.000000	
744	0.000000	0.000000	0.000000	-31.314926	1.451059	1.129200	1.000000	
[LToes]
#Fr	Tx	Ty	Tz	Rx	Ry	Rz	SF
741	0.000000	0.000000	0.000000	7.484102	-0.000000	0.000000	1.000000	
742	0.000000	0.000000	0.000000	7.230181	-0.000000	0.000000	1.000000	
743	0.000000	0.000000	0.000000	7.207566	-0.000000	0.000000	1.000000	
744	0.000000	0.000000	0.000000	7.499915	-0.000000	0.000000	1.000000	
